<svg aria-hidden="true" style="position:absolute;width:0;height:0" xmlns="http://www.w3.org/2000/svg" overflow="hidden"><defs><symbol id="icon-arrow-left" viewBox="0 0 32 32"><path stroke-linejoin="round" stroke-linecap="round" stroke-width="2.667" d="M25.333 16H6.666M16 25.333L6.667 16 16 6.667"/></symbol><symbol id="icon-arrow-right" viewBox="0 0 32 32"><path stroke-linejoin="round" stroke-linecap="round" stroke-width="2.667" d="M6.667 16h18.667M16 25.333L25.333 16 16 6.667"/></symbol><symbol id="icon-close" viewBox="0 0 32 32"><path stroke-width="2.133" d="M8.533 8.533l14.933 14.933M8.533 23.467L23.466 8.534"/></symbol><symbol id="icon-heart" viewBox="0 0 34 32"><path d="M17.231 31.705l-2.412-2.412C5.859 21.367.001 16.025.001 9.478.001 4.136 4.136.001 9.478.001c2.929 0 5.858 1.378 7.754 3.618 1.895-2.24 4.825-3.618 7.754-3.618 5.342 0 9.477 4.135 9.477 9.477 0 6.548-5.858 11.889-14.818 19.815l-2.412 2.412z"/></symbol><symbol id="icon-logo" viewBox="0 0 31 32"><path fill="none" stroke="var(--color2, #818181)" stroke-linejoin="round" stroke-linecap="round" stroke-width="2.064" d="M23.556 2.065H7.411a2.25 2.25 0 00-2.25 2.25V20.46a2.25 2.25 0 002.25 2.25h16.145a2.25 2.25 0 002.25-2.25V4.315a2.25 2.25 0 00-2.25-2.25zM10.323 2.065V22.71M20.645 2.065V22.71M5.161 12.387h20.645M5.161 7.226h5.161M5.161 17.548h5.161M20.645 17.548h5.161M20.645 7.226h5.161"/></symbol><symbol id="icon-search" viewBox="0 0 32 32"><path fill="none" stroke="var(--color3, #fff)" stroke-linejoin="round" stroke-linecap="round" stroke-width="2.667" d="M14.667 25.333c5.891 0 10.667-4.776 10.667-10.667S20.558 3.999 14.667 3.999 4 8.775 4 14.666s4.776 10.667 10.667 10.667zM28 28.001l-5.8-5.8"/></symbol></defs></svg>