<svg aria-hidden="true" style="position:absolute;width:0;height:0" xmlns="http://www.w3.org/2000/svg" overflow="hidden"><defs><symbol id="close" viewBox="0 0 32 32"><path stroke-width="2.133" d="M8.533 8.533l14.933 14.933m-14.933.001L23.466 8.534"/></symbol><symbol id="icon-email" viewBox="0 0 32 32"><path d="M26.67 5.33H5.33A2.66 2.66 0 002.67 8v16c0 1.46 1.19 2.67 2.66 2.67h21.34c1.45 0 2.66-1.21 2.66-2.67V8c0-1.48-1.2-2.67-2.66-2.67zM26.13 11l-9.42 5.89a1.34 1.34 0 01-1.43 0l-9.41-5.87a1.14 1.14 0 111.2-1.92L16 14.66l8.94-5.58a1.14 1.14 0 111.2 1.92z"/></symbol><symbol id="icon-key" viewBox="0 0 32 32"><path d="M22 0a10 10 0 00-9.83 11.83L0 24v6c0 1.1.9 2 2 2h2v-2h4v-4h4v-4h4l2.6-2.6A10 10 0 1022 0zm3 10a3 3 0 110-6 3 3 0 010 6z"/></symbol><symbol id="search" viewBox="0 0 32 32"><path fill="none" stroke="var(--color1, #fff)" stroke-linejoin="round" stroke-linecap="round" stroke-width="2.667" d="M14.667 25.333c5.891 0 10.667-4.776 10.667-10.667S20.558 3.999 14.667 3.999 4 8.775 4 14.666s4.776 10.667 10.667 10.667zM28 28.001l-5.8-5.8"/></symbol><symbol id="arrow-left" viewBox="0 0 32 32"><path stroke-linejoin="round" stroke-linecap="round" stroke-width="2.667" d="M25.333 16H6.666M16 25.333L6.667 16 16 6.667"/></symbol><symbol id="arrow-right" viewBox="0 0 32 32"><path stroke-linejoin="round" stroke-linecap="round" stroke-width="2.667" d="M6.667 16h18.667M16 25.333L25.333 16 16 6.667"/></symbol><symbol id="heart" viewBox="0 0 32 32"><path fill="var(--color2, #ff6b08)" d="M16 30.583l-2.24-2.24C5.44 20.983 0 16.023 0 9.943c0-4.96 3.84-8.8 8.8-8.8 2.72 0 5.44 1.28 7.2 3.36 1.76-2.08 4.48-3.36 7.2-3.36 4.96 0 8.8 3.84 8.8 8.8 0 6.08-5.44 11.04-13.76 18.4L16 30.583z"/></symbol><symbol id="film" viewBox="0 0 32 32"><path fill="none" stroke="var(--color3, #818181)" stroke-linejoin="round" stroke-linecap="round" stroke-width="2.667" d="M26.427 2.667H5.574a2.907 2.907 0 00-2.907 2.907v20.853a2.907 2.907 0 002.907 2.907h20.853a2.907 2.907 0 002.907-2.907V5.574a2.907 2.907 0 00-2.907-2.907zm-17.094 0v26.667M22.667 2.667v26.667M2.667 16h26.667M2.667 9.333h6.667M2.667 22.667h6.667m13.333 0h6.667M22.667 9.333h6.667"/></symbol><symbol id="btn-left" viewBox="0 0 32 32"><path fill="var(--color1, #fff)" opacity=".3" d="M0 16C0 7.163 7.163 0 16 0s16 7.163 16 16-7.163 16-16 16S0 24.837 0 16z"/><path fill="none" opacity=".3" stroke="var(--color4, #acacac)" stroke-width="2.526" d="M19.368 20.632l-7.685-4.758a.842.842 0 010-1.432l7.685-4.758"/></symbol><symbol id="btn-right" viewBox="0 0 32 32"><path fill="var(--color1, #fff)" d="M32 16c0 8.837-7.163 16-16 16S0 24.837 0 16 7.163 0 16 0s16 7.163 16 16z"/><path fill="none" stroke="var(--color4, #acacac)" stroke-width="2.526" d="M12.632 11.368l7.685 4.758a.842.842 0 010 1.432l-7.685 4.758"/></symbol><symbol id="close1" viewBox="0 0 32 32"><path fill="var(--color5, #48484a)" d="M32 3.223L28.777 0 16 12.777 3.223 0 0 3.223 12.777 16 0 28.777 3.223 32 16 19.223 28.777 32 32 28.777 19.223 16 32 3.223z"/></symbol><symbol id="location" viewBox="0 0 32 32"><path fill="var(--color6, #ec6e4d)" d="M16 .314c-6.071 0-10.98 4.91-10.98 10.98C5.02 19.529 16 31.686 16 31.686s10.98-12.157 10.98-20.392C26.98 5.223 22.07.314 16 .314zm0 14.902a3.92 3.92 0 110-7.842 3.92 3.92 0 010 7.842z"/></symbol><symbol id="search1" viewBox="0 0 32 32"><path fill="var(--color4, #acacac)" d="M30.741 28.234l-9.884-9.884c2.009-2.755 2.898-6.364 1.742-10.204C21.39 4.182 18.03 1.07 13.977.253A11.575 11.575 0 00.252 13.978c.818 4.071 3.929 7.431 7.893 8.622 3.84 1.156 7.449.267 10.204-1.742l9.884 9.884a1.773 1.773 0 002.506-2.506zM3.558 11.558c0-4.427 3.573-8 8-8s8 3.573 8 8-3.573 8-8 8-8-3.573-8-8z"/></symbol><symbol id="wind-direction" viewBox="0 0 32 32"><path fill="var(--color5, #48484a)" d="M32 16c0 8.837-7.163 16-16 16S0 24.837 0 16 7.163 0 16 0s16 7.163 16 16z"/><path fill="var(--color7, #e6e6e6)" d="M15.322 26.108L8.494 9.177a.842.842 0 011.074-1.104l17.3 6.432c.69.257.744 1.219.098 1.572-4.911 2.687-7.463 5.28-10.083 10.105-.346.638-1.291.599-1.562-.074z"/></symbol><symbol id="microphone" viewBox="0 0 32 32"><path d="M16.4 25.936v2.993c2.992.161 5.305 1.151 5.305 2.075 0 .023-12.268.023-12.268 0 0-.889 2.142-1.849 4.973-2.062v-3.018c-3.614-.518-6.402-3.597-6.402-7.354v-1.555h.995v1.555a6.466 6.466 0 006.464 6.466h.004a6.466 6.466 0 006.464-6.466v-1.555h1.058v1.555c-.001 3.801-2.917 6.903-6.593 7.366zm-.9-1.981a5.493 5.493 0 01-5.494-5.494v-2.477h4.495v-.999h-4.495v-.999h4.495v-.998h-4.495v-.999h4.495v-.999h-4.495v-.999h4.495v-.999h-4.495V7.41c0-3.034 2.459-5.432 5.494-5.432 3.034 0 5.494 2.397 5.494 5.432v1.582h-4.496v.999h4.496v.999h-4.496v.999h4.496v.999h-4.496v.998h4.496v.999h-4.496v.999h4.496v2.477a5.494 5.494 0 01-5.494 5.494z"/></symbol></defs></svg>