<?xml version="1.0" standalone="no"?>
<!DOCTYPE svg PUBLIC "-//W3C//DTD SVG 20010904//EN"
 "http://www.w3.org/TR/2001/REC-SVG-20010904/DTD/svg10.dtd">
<svg version="1.0" xmlns="http://www.w3.org/2000/svg"
 width="260.000000pt" height="260.000000pt" viewBox="0 0 260.000000 260.000000"
 preserveAspectRatio="xMidYMid meet">
<metadata>
Created by potrace 1.11, written by Peter Selinger 2001-2013
</metadata>
<g transform="translate(0.000000,260.000000) scale(0.100000,-0.100000)"
fill="#000000" stroke="none">
<path d="M349 2474 c-66 -20 -137 -72 -176 -128 -66 -96 -64 -56 -61 -1067 l3
-914 26 -56 c34 -72 96 -134 168 -168 l56 -26 935 0 935 0 56 26 c72 34 134
96 168 168 l26 56 0 935 0 935 -26 56 c-34 72 -96 134 -168 168 l-56 26 -920
2 c-776 2 -927 0 -966 -13z m301 -359 l0 -165 -165 0 -165 0 0 98 c0 113 11
160 44 191 34 32 68 39 184 40 l102 1 0 -165z m1080 -270 l0 -435 -430 0 -430
0 0 435 0 435 430 0 430 0 0 -435z m483 412 c52 -34 62 -61 66 -189 l3 -118
-166 0 -166 0 0 166 0 166 118 -3 c91 -3 124 -8 145 -22z m-1563 -687 l0 -160
-165 0 -165 0 0 160 0 160 165 0 165 0 0 -160z m1630 0 l0 -160 -165 0 -165 0
0 160 0 160 165 0 165 0 0 -160z m-1630 -540 l0 -160 -165 0 -165 0 0 160 0
160 165 0 165 0 0 -160z m1080 -275 l0 -435 -430 0 -430 0 0 435 0 435 430 0
430 0 0 -435z m550 275 l0 -160 -165 0 -165 0 0 160 0 160 165 0 165 0 0 -160z
m-1630 -546 l0 -166 -118 3 c-183 6 -205 28 -211 211 l-3 118 166 0 166 0 0
-166z m1629 48 c-6 -183 -28 -205 -211 -211 l-118 -3 0 166 0 166 166 0 166 0
-3 -118z"/>
</g>
</svg>
